<svg width="180" height="180" viewBox="0 0 180 180" fill="none" xmlns="http://www.w3.org/2000/svg">
<rect width="180" height="180" rx="90" fill="url(#paint0_linear_277_5180)"/>
<path d="M40.5972 92.637L86.0509 129" stroke="#1920FF" stroke-width="4.36" stroke-miterlimit="10" stroke-linecap="square"/>
<path d="M71.7622 126.399L115.917 112.114" stroke="#1920FF" stroke-width="4.36" stroke-miterlimit="10" stroke-linecap="square"/>
<path d="M114.619 113.411L130.203 122.502" stroke="#1920FF" stroke-width="4.36" stroke-miterlimit="10" stroke-linecap="square"/>
<path d="M121.113 95.2285L127.606 125.098" stroke="#1920FF" stroke-width="4.36" stroke-miterlimit="10" stroke-linecap="square"/>
<path d="M99.0361 54.9722L128.906 87.4391" stroke="#1920FF" stroke-width="4.36" stroke-miterlimit="10" stroke-linecap="square"/>
<path d="M126.31 75.7517L119.876 102.966" stroke="#1920FF" stroke-width="4.36" stroke-miterlimit="10" stroke-linecap="square"/>
<path d="M60 64L96 108" stroke="#1920FF" stroke-width="4.36" stroke-miterlimit="10" stroke-linecap="square"/>
<path d="M53.5854 65.3633L91.2471 88.7395" stroke="#1920FF" stroke-width="4.36" stroke-miterlimit="10" stroke-linecap="square"/>
<path d="M65.2737 51.0776L89.9485 91.3366" stroke="#1920FF" stroke-width="4.36" stroke-miterlimit="10" stroke-linecap="square"/>
<path d="M61.3767 52.3723L109.669 91.8053" stroke="#1920FF" stroke-width="4.36" stroke-miterlimit="10" stroke-linecap="square"/>
<path d="M38 93.9314L79.825 105.738M72.3767 106.918L96.4405 104.557" stroke="#1920FF" stroke-width="4.36"/>
<path d="M104.233 53.6719L108.628 82.2756M109.428 72.9054L104.233 92.6322" stroke="#1920FF" stroke-width="4.36"/>
<defs>
<linearGradient id="paint0_linear_277_5180" x1="31.5" y1="12.5" x2="141" y2="163.5" gradientUnits="userSpaceOnUse">
<stop stop-color="#2D2D2D"/>
<stop offset="1" stop-color="#171717"/>
</linearGradient>
</defs>
</svg>
