<svg width="548" height="734" viewBox="0 0 548 734" fill="none" xmlns="http://www.w3.org/2000/svg">
<g clip-path="url(#clip0_499_9742)">
<path d="M0.734642 413.263C0.734642 589.94 143.955 733.16 320.631 733.16C362.649 733.214 404.263 724.965 443.082 708.885C481.901 692.806 517.16 669.214 546.832 639.464L94.4301 187.062C64.6808 216.735 41.0886 251.994 25.0092 290.813C8.92978 329.632 0.68024 371.246 0.734642 413.263V413.263Z" fill="url(#paint0_linear_499_9742)"/>
<path d="M454.306 546.936C484.059 517.26 507.654 481.996 523.733 443.171C539.813 404.346 548.06 362.726 548.002 320.704C548.002 144.058 404.774 0.838119 228.074 0.838119C186.062 0.78779 144.454 9.03931 105.64 25.1186C66.8269 41.1979 31.573 64.788 1.9043 94.5336L454.306 546.936Z" fill="url(#paint1_linear_499_9742)"/>
<path d="M273.786 538.638C368.9 538.638 446.005 461.533 446.005 366.418C446.005 271.304 368.9 194.199 273.786 194.199C178.672 194.199 101.566 271.304 101.566 366.418C101.566 461.533 178.672 538.638 273.786 538.638Z" fill="url(#paint2_linear_499_9742)"/>
<path d="M273.79 545.59C232.326 545.597 192.141 531.226 160.085 504.925C128.029 478.624 106.084 442.022 97.9905 401.354C89.8969 360.687 96.1551 318.472 115.699 281.902C135.242 245.331 166.862 216.669 205.17 200.8C243.478 184.93 286.103 182.835 325.782 194.87C365.462 206.906 399.741 232.329 422.777 266.806C445.813 301.283 456.182 342.681 452.116 383.946C448.05 425.211 429.801 463.789 400.479 493.107C383.881 509.798 364.138 523.03 342.392 532.039C320.645 541.047 297.329 545.654 273.79 545.59ZM273.79 201.144C235.542 201.137 198.475 214.392 168.905 238.651C139.335 262.911 119.092 296.673 111.626 334.185C104.159 371.697 109.931 410.638 127.957 444.371C145.984 478.104 175.15 504.543 210.485 519.183C245.821 533.822 285.139 535.755 321.74 524.654C358.342 513.552 389.961 490.103 411.211 458.301C432.46 426.499 442.025 388.313 438.275 350.249C434.525 312.186 417.692 276.6 390.645 249.556C375.336 234.161 357.126 221.954 337.067 213.644C317.009 205.335 295.502 201.086 273.79 201.144V201.144Z" fill="white"/>
<path d="M172.716 381.165C178.004 384.827 183.515 388.158 189.216 391.138C201.576 397.318 214.546 401.659 228.405 402.887C243.932 404.27 258.787 401.945 272.661 394.514C273.541 394.035 274.391 393.509 275.357 392.969C242.001 366.82 215.28 334.707 190.251 300.98C213.109 320.293 236.686 338.562 261.838 354.73L262.224 354.36C257.883 349.431 253.518 344.526 249.216 339.566C244.913 334.607 240.641 329.416 236.555 324.186C232.468 318.956 228.474 313.75 224.496 308.489C220.518 303.228 216.632 297.79 212.87 292.267C213.588 291.819 213.882 292.429 214.23 292.769C225.688 304.099 237.613 314.914 250.004 325.213C264.64 337.522 279.988 348.959 295.967 359.466C297.35 360.369 298.864 361.065 300.27 361.938C301.189 362.509 301.158 361.721 301.313 361.289C303.036 356.724 304.248 351.983 304.928 347.152C307.794 326.225 302.61 306.983 292.761 288.682C290.495 284.545 287.978 280.552 285.222 276.724C285.037 276.434 284.872 276.132 284.727 275.82H284.689C285.098 275.589 285.353 275.944 285.623 276.114C310.405 291.873 328.334 313.147 337.666 341.235C341.445 352.425 342.852 364.279 341.799 376.043C341.415 380.252 340.662 384.419 339.551 388.496C339.399 388.94 339.369 389.416 339.464 389.875C339.559 390.335 339.776 390.76 340.092 391.107C347.122 399.787 351.815 410.121 353.726 421.126C354.499 425.807 354.838 430.519 353.873 435.232C353.732 436.076 353.45 436.891 353.039 437.642C352.359 438.816 351.81 438.831 351.092 437.696C350.373 436.56 349.624 435.17 348.774 433.98C342.216 424.602 332.344 420.987 320.656 423.698C315.866 424.853 311.281 426.734 307.06 429.276C300.782 432.815 293.949 435.262 286.851 436.514C270.992 439.604 255.403 438.159 240.069 433.424C220.062 427.198 202.928 416.259 188.266 401.373C182.269 395.336 176.968 388.646 172.461 381.428L172.716 381.165Z" fill="white"/>
</g>
<defs>
<linearGradient id="paint0_linear_499_9742" x1="-116.591" y1="202.242" x2="412.249" y2="731.082" gradientUnits="userSpaceOnUse">
<stop stop-color="#EF5138"/>
<stop offset="0.06" stop-color="#DF4D47"/>
<stop offset="0.31" stop-color="#993D88"/>
<stop offset="0.55" stop-color="#6231BB"/>
<stop offset="0.75" stop-color="#3A28E0"/>
<stop offset="0.9" stop-color="#2222F7"/>
<stop offset="1" stop-color="#1920FF"/>
</linearGradient>
<linearGradient id="paint1_linear_499_9742" x1="109.613" y1="-23.9589" x2="638.453" y2="504.881" gradientUnits="userSpaceOnUse">
<stop stop-color="#EF5138"/>
<stop offset="0.06" stop-color="#DF4D47"/>
<stop offset="0.31" stop-color="#993D88"/>
<stop offset="0.55" stop-color="#6231BB"/>
<stop offset="0.75" stop-color="#3A28E0"/>
<stop offset="0.9" stop-color="#2222F7"/>
<stop offset="1" stop-color="#1920FF"/>
</linearGradient>
<linearGradient id="paint2_linear_499_9742" x1="398.404" y1="491.029" x2="152.072" y2="244.697" gradientUnits="userSpaceOnUse">
<stop stop-color="#EF5138"/>
<stop offset="0.1" stop-color="#E64F40"/>
<stop offset="0.25" stop-color="#CE4957"/>
<stop offset="0.45" stop-color="#A6407C"/>
<stop offset="0.69" stop-color="#6F34AF"/>
<stop offset="0.94" stop-color="#2924F0"/>
<stop offset="1" stop-color="#1920FF"/>
</linearGradient>
<clipPath id="clip0_499_9742">
<rect width="547.264" height="732.322" fill="white" transform="translate(0.736328 0.837891)"/>
</clipPath>
</defs>
</svg>
