<svg width="62" height="60" viewBox="0 0 62 60" fill="none" xmlns="http://www.w3.org/2000/svg">
<path d="M0 57.702L2.95442 49.543H5.22751L8.17168 57.702H6.27542L5.63389 55.8199H2.54864L1.9065 57.702H0ZM5.1853 54.5015L4.1193 51.3801H4.059L2.99361 54.5015H5.1853Z" fill="white"/>
<path d="M11.2623 52.6883C10.6967 52.6941 10.2668 52.948 10.2729 53.3195C10.2668 53.5959 10.4905 53.81 11.0971 53.9282L12.2427 54.1533C13.4847 54.4014 14.0853 54.931 14.0913 55.8103C14.0853 57.0156 12.9548 57.8217 11.2532 57.8298C9.52823 57.824 8.51528 57.086 8.36816 55.8911H10.1227C10.2053 56.37 10.6117 56.6181 11.2532 56.6239C11.8894 56.6181 12.3132 56.3758 12.3132 55.9811C12.3132 55.6661 12.0425 55.4688 11.442 55.3505L10.382 55.1474C9.16284 54.9166 8.5388 54.3194 8.54483 53.4118C8.5388 52.24 9.59274 51.5078 11.2418 51.5078C12.8547 51.5078 13.8561 52.24 13.9502 53.4009H12.3132C12.2336 52.9722 11.8459 52.6941 11.2623 52.6883Z" fill="white"/>
<path d="M15.0011 59.9672V58.6708C15.2248 58.6881 15.4895 58.6939 15.7077 58.6939C16.055 58.6939 16.3318 58.6598 16.544 58.1302L16.6495 57.8711L14.3535 51.582H16.1786L17.5214 56.09H17.5919L18.9461 51.582H20.7948L18.2986 58.3777C17.9332 59.3637 17.2326 59.9932 15.8868 60.0001C15.5425 59.9949 15.2236 59.9898 15.0011 59.9672Z" fill="white"/>
<path d="M23.0838 57.7018H21.3413V51.5824H23.0012V52.6532H23.0724C23.3606 51.9488 24.0437 51.5039 24.9915 51.5039C26.3282 51.5039 27.1995 52.3769 27.1941 53.8026V57.7018H25.4624V54.0957C25.457 53.3404 25.0331 52.8898 24.3084 52.8898C23.5837 52.8898 23.0838 53.3572 23.0838 54.1632V57.7018Z" fill="white"/>
<path d="M27.9878 54.6588C27.9818 52.7883 29.1828 51.5039 31.1201 51.5039C32.7691 51.5039 33.8876 52.4219 33.9581 53.8251H32.3212C32.2156 53.2222 31.8032 52.805 31.1436 52.7998C30.3079 52.805 29.7568 53.476 29.7568 54.6363C29.7568 55.8197 30.2995 56.4959 31.1436 56.4959C31.7562 56.4959 32.2096 56.1295 32.3212 55.4816H33.9581C33.8816 56.8663 32.8162 57.8201 31.1201 57.8259C29.1593 57.8201 27.9818 56.5242 27.9878 54.6588Z" fill="white"/>
<path d="M37.9322 50.8514C37.0375 50.8514 36.537 51.2454 36.531 51.7866C36.525 52.378 37.1611 52.6429 37.8973 52.801L38.6624 52.981C40.1227 53.3024 41.2122 54.012 41.2177 55.3703C41.2122 56.8635 39.9991 57.8213 37.9208 57.8155C35.8599 57.8213 34.5443 56.9085 34.4937 55.1562H36.2132C36.2735 55.9784 36.9549 56.3955 37.8973 56.3955C38.8276 56.3955 39.4281 55.9784 39.4281 55.3703C39.4281 54.8123 38.8981 54.5533 37.9678 54.3317L37.0375 54.1176C35.6007 53.7795 34.7173 53.0918 34.7173 51.8974C34.7113 50.4157 36.0776 49.4297 37.9443 49.4297C39.8339 49.4297 41.0766 50.4325 41.1001 51.8749H39.4022C39.3335 51.2287 38.7993 50.8514 37.9322 50.8514Z" fill="white"/>
<path d="M41.5508 51.582H43.3198L44.3207 55.7178H44.381L45.4289 51.582H47.16L48.2199 55.6953H48.2802L49.2696 51.582H51.0363L49.2763 57.7015H47.4391L46.3345 53.8132H46.2519L45.1425 57.7015H43.2939L41.5508 51.582Z" fill="white"/>
<path d="M52.4851 49.082C53.003 49.0878 53.4329 49.4652 53.4269 49.9388C53.4329 50.4004 53.0048 50.7841 52.4851 50.7841C51.9654 50.7841 51.5313 50.401 51.5313 49.9388C51.5306 49.4652 51.9605 49.0878 52.4851 49.082ZM51.6139 51.5838H53.3564V57.7032H51.6139V51.5838Z" fill="white"/>
<path d="M61.3026 56.4402C60.9493 56.4293 60.696 56.311 60.6997 55.8205V52.8341H61.9007V51.5832H60.6997V50.1183H58.9565V51.5832H56.5375V51.2116C56.5375 50.6987 56.839 50.4962 57.3973 50.4904C57.4914 50.4962 57.6741 50.5014 57.9273 50.5239V49.262C57.587 49.1905 57.2393 49.1564 56.8909 49.1605C55.6072 49.1605 54.795 49.8309 54.795 51.1222V51.5838H53.8906V52.8347H54.795V57.7026H56.5375V52.8341H58.9565V56.0571C58.9451 57.2463 59.8043 57.788 61.0668 57.7811C61.3781 57.787 61.6893 57.7677 61.9972 57.7234V56.405C61.7856 56.4235 61.4793 56.4402 61.3026 56.4402Z" fill="white"/>
<g clip-path="url(#clip0_27_3347)">
<path d="M14.5366 23.1141C14.5366 33.0152 22.5629 41.0415 32.464 41.0415C34.8187 41.0445 37.1508 40.5822 39.3263 39.6811C41.5018 38.78 43.4777 37.4578 45.1406 35.7907L19.7874 10.4375C18.1203 12.1004 16.7981 14.0763 15.897 16.2518C14.9959 18.4273 14.5336 20.7594 14.5366 23.1141Z" fill="url(#paint0_linear_27_3347)"/>
<path d="M39.9552 30.604C41.6226 28.9409 42.9449 26.9647 43.846 24.7889C44.7471 22.6131 45.2093 20.2807 45.206 17.9257C45.206 8.02623 37.1794 1.28254e-05 27.2769 1.28254e-05C24.9225 -0.00280772 22.5907 0.459618 20.4155 1.36072C18.2404 2.26182 16.2647 3.58384 14.6021 5.25082L39.9552 30.604Z" fill="url(#paint1_linear_27_3347)"/>
<path d="M29.8384 30.1387C35.1687 30.1387 39.4898 25.8176 39.4898 20.4873C39.4898 15.157 35.1687 10.8359 29.8384 10.8359C24.5081 10.8359 20.187 15.157 20.187 20.4873C20.187 25.8176 24.5081 30.1387 29.8384 30.1387Z" fill="url(#paint2_linear_27_3347)"/>
<path d="M29.8392 30.5286C27.5154 30.529 25.2635 29.7236 23.467 28.2497C21.6705 26.7757 20.4407 24.7245 19.9872 22.4454C19.5336 20.1664 19.8843 17.8006 20.9795 15.7512C22.0748 13.7017 23.8468 12.0955 25.9936 11.2061C28.1404 10.3168 30.5292 10.1993 32.7529 10.8738C34.9766 11.5483 36.8976 12.973 38.1886 14.9052C39.4795 16.8373 40.0606 19.1573 39.8328 21.4698C39.6049 23.7824 38.5822 25.9444 36.939 27.5874C36.0088 28.5227 34.9024 29.2643 33.6837 29.7691C32.465 30.274 31.1583 30.5321 29.8392 30.5286ZM29.8392 11.2254C27.6957 11.225 25.6184 11.9678 23.9613 13.3274C22.3042 14.6869 21.1697 16.579 20.7513 18.6812C20.3328 20.7834 20.6563 22.9657 21.6665 24.8561C22.6767 26.7466 24.3112 28.2283 26.2915 29.0487C28.2717 29.8691 30.4752 29.9774 32.5264 29.3553C34.5776 28.7332 36.3495 27.419 37.5404 25.6368C38.7312 23.8546 39.2673 21.7146 39.0571 19.5814C38.8469 17.4483 37.9036 15.454 36.3879 13.9385C35.5299 13.0757 34.5094 12.3917 33.3853 11.9259C32.2612 11.4602 31.0559 11.2221 29.8392 11.2254Z" fill="white"/>
<path d="M24.1744 21.3142C24.4708 21.5194 24.7796 21.7061 25.0991 21.8731C25.7918 22.2194 26.5187 22.4627 27.2953 22.5315C28.1655 22.609 28.998 22.4787 29.7755 22.0622C29.8248 22.0354 29.8725 22.006 29.9266 21.9757C28.0572 20.5102 26.5598 18.7106 25.1572 16.8205C26.4381 17.9028 27.7594 18.9266 29.169 19.8327L29.1906 19.812C28.9473 19.5358 28.7027 19.2609 28.4616 18.9829C28.2205 18.705 27.9811 18.4141 27.752 18.121C27.523 17.8279 27.2992 17.5361 27.0763 17.2413C26.8533 16.9465 26.6356 16.6417 26.4247 16.3322C26.465 16.3071 26.4814 16.3413 26.5009 16.3603C27.1431 16.9953 27.8113 17.6014 28.5057 18.1786C29.326 18.8683 30.1861 19.5093 31.0816 20.0981C31.1591 20.1488 31.2439 20.1877 31.3227 20.2366C31.3742 20.2687 31.3725 20.2245 31.3812 20.2003C31.4777 19.9445 31.5457 19.6788 31.5838 19.408C31.7444 18.2353 31.4539 17.1569 30.9019 16.1313C30.775 15.8995 30.6338 15.6757 30.4794 15.4612C30.4691 15.4449 30.4598 15.428 30.4517 15.4105H30.4495C30.4725 15.3975 30.4868 15.4174 30.5019 15.427C31.8907 16.3101 32.8955 17.5024 33.4184 19.0764C33.6302 19.7035 33.7091 20.3679 33.6501 21.0271C33.6285 21.263 33.5864 21.4965 33.5241 21.725C33.5156 21.7499 33.5139 21.7766 33.5192 21.8023C33.5245 21.828 33.5367 21.8519 33.5544 21.8713C33.9484 22.3578 34.2114 22.9369 34.3185 23.5536C34.3618 23.816 34.3808 24.08 34.3267 24.3441C34.3188 24.3915 34.303 24.4371 34.2799 24.4792C34.2418 24.545 34.2111 24.5459 34.1709 24.4822C34.1306 24.4186 34.0886 24.3407 34.041 24.274C33.6734 23.7484 33.1202 23.5458 32.4652 23.6978C32.1967 23.7625 31.9398 23.8679 31.7032 24.0103C31.3514 24.2087 30.9685 24.3458 30.5707 24.416C29.682 24.5892 28.8083 24.5082 27.949 24.2428C26.8278 23.8939 25.8676 23.2809 25.0459 22.4467C24.7098 22.1083 24.4127 21.7334 24.1602 21.3289L24.1744 21.3142Z" fill="white"/>
</g>
<defs>
<linearGradient id="paint0_linear_27_3347" x1="7.96154" y1="11.2882" x2="37.5984" y2="40.925" gradientUnits="userSpaceOnUse">
<stop stop-color="#EF5138"/>
<stop offset="0.06" stop-color="#DF4D47"/>
<stop offset="0.31" stop-color="#993D88"/>
<stop offset="0.55" stop-color="#6231BB"/>
<stop offset="0.75" stop-color="#3A28E0"/>
<stop offset="0.9" stop-color="#2222F7"/>
<stop offset="1" stop-color="#1920FF"/>
</linearGradient>
<linearGradient id="paint1_linear_27_3347" x1="20.6382" y1="-1.38964" x2="50.275" y2="28.2472" gradientUnits="userSpaceOnUse">
<stop stop-color="#EF5138"/>
<stop offset="0.06" stop-color="#DF4D47"/>
<stop offset="0.31" stop-color="#993D88"/>
<stop offset="0.55" stop-color="#6231BB"/>
<stop offset="0.75" stop-color="#3A28E0"/>
<stop offset="0.9" stop-color="#2222F7"/>
<stop offset="1" stop-color="#1920FF"/>
</linearGradient>
<linearGradient id="paint2_linear_27_3347" x1="36.8222" y1="27.4706" x2="23.0174" y2="13.6659" gradientUnits="userSpaceOnUse">
<stop stop-color="#EF5138"/>
<stop offset="0.1" stop-color="#E64F40"/>
<stop offset="0.25" stop-color="#CE4957"/>
<stop offset="0.45" stop-color="#A6407C"/>
<stop offset="0.69" stop-color="#6F34AF"/>
<stop offset="0.94" stop-color="#2924F0"/>
<stop offset="1" stop-color="#1920FF"/>
</linearGradient>
<clipPath id="clip0_27_3347">
<rect width="30.6693" height="41.0402" fill="white" transform="translate(14.5366)"/>
</clipPath>
</defs>
</svg>
