<svg width="1325" height="1186" viewBox="0 0 1325 1186" fill="none" xmlns="http://www.w3.org/2000/svg">
<path fill-rule="evenodd" clip-rule="evenodd" d="M174.157 1080.35C171.706 1082.87 170.869 1088.42 172.289 1092.74C173.708 1097.06 176.847 1098.52 179.299 1096L406.967 861.824L444.399 871.996L175.693 1148.38C173.241 1150.9 172.404 1156.45 173.824 1160.77C175.244 1165.09 178.382 1166.55 180.834 1164.03L460.499 876.371L479.03 881.406L265.802 1100.73C263.35 1103.25 262.513 1108.8 263.933 1113.12C265.353 1117.44 268.491 1118.9 270.943 1116.37L495.13 885.781L532.563 895.952L267.337 1168.76C264.886 1171.28 264.049 1176.82 265.469 1181.15C266.888 1185.47 270.027 1186.92 272.479 1184.4L548.663 900.327L835.369 978.232C838.841 979.176 843.147 976.625 844.985 972.536C846.824 968.446 845.499 964.365 842.026 963.422L783.265 947.455C783.406 945.052 782.359 942.651 780.267 941.162L619.893 827.062L634.37 812.171L875.961 777.119C876.023 777.11 876.085 777.1 876.147 777.089C876.201 777.079 876.254 777.068 876.307 777.056C876.353 777.046 876.398 777.035 876.444 777.024C876.517 777.006 876.589 776.986 876.662 776.964L968.347 828.708C971.732 830.618 976.324 829.272 978.604 825.702C980.885 822.131 979.989 817.688 976.604 815.778L894.381 769.374L1020.01 788.036C1023.47 788.549 1027.55 785.495 1029.14 781.213C1030.72 776.931 1029.2 773.044 1025.74 772.53L855.044 747.174L805.32 719.112L874.426 709.085C877.734 708.605 881.111 704.488 881.969 699.89C882.026 699.581 882.071 699.279 882.103 698.982L1018.45 719.033C1021.91 719.541 1026 716.482 1027.57 712.2C1029.15 707.918 1027.63 704.034 1024.17 703.525L957.307 693.693L1087.99 708.5C1089.6 708.683 1091.06 707.521 1091.25 705.905C1091.43 704.29 1090.27 702.831 1088.65 702.648L781.686 667.867L775.543 666.964L807.214 634.388H1058.71C1061.15 634.388 1063.13 632.41 1063.13 629.971C1063.13 627.532 1061.15 625.554 1058.71 625.554H815.802L833.645 607.202L1058.67 587.945C1062.02 587.659 1065.56 583.736 1066.57 579.184C1067.19 576.442 1066.74 574.096 1065.56 572.728L1080.02 573.395C1083.44 573.552 1087.3 570.1 1088.65 565.683C1089.99 561.266 1088.31 557.557 1084.88 557.399L958.645 551.579L1056.52 519.949L1057.14 519.896C1058.1 519.814 1059.07 519.433 1060 518.824L1102.81 504.991C1105.97 503.97 1108.83 499.349 1109.22 494.67C1109.6 489.991 1107.34 487.025 1104.19 488.046L1055.14 503.898L923.094 515.197L952.381 485.073L1101.27 436.957C1104.43 435.936 1107.3 431.315 1107.68 426.636C1108.06 421.957 1105.81 418.991 1102.65 420.012L975.771 461.016L1000.01 436.081L1086.58 405.08C1089.71 403.96 1092.47 399.255 1092.76 394.569C1093.04 389.884 1090.74 386.993 1087.62 388.113L1024.76 410.621L1321.62 105.289C1324.07 102.767 1324.9 97.2199 1323.48 92.8991C1322.06 88.5782 1318.93 87.1199 1316.47 89.6418L1082.2 330.605L923.339 446.944L920.942 447.803L1235.25 124.513L1277.06 94.3054C1279.82 92.3137 1281.51 86.9812 1280.83 82.3948C1280.62 80.9542 1280.2 79.7586 1279.64 78.8579L1320.08 37.26C1322.53 34.7381 1323.37 29.191 1321.95 24.8702C1320.53 20.5492 1317.39 19.091 1314.94 21.6129L1226.89 112.18L1148.17 169.053L1229.97 84.9126C1232.42 82.3907 1233.26 76.8436 1231.84 72.5227C1230.42 68.2019 1227.28 66.7436 1224.83 69.2655L1079.77 218.466L920.762 333.348L1086.64 162.735L1275.53 26.2666C1278.28 24.2749 1279.97 18.9424 1279.3 14.356C1278.62 9.76951 1275.84 7.66604 1273.08 9.65762L1146.66 100.991L1228.44 16.8837C1230.89 14.3617 1231.72 8.81468 1230.3 4.49377C1228.88 0.172953 1225.75 -1.28533 1223.29 1.2366L1078.27 150.404L906.634 274.407L1092.91 74.7757C1094.57 72.9922 1094.48 70.1973 1092.69 68.5332C1090.91 66.869 1088.11 66.9658 1086.45 68.7492L869.558 301.194L748.867 388.389L400.657 490.735L-46.0742 238.618C-49.4593 236.708 -54.052 238.053 -56.3321 241.624C-58.6123 245.194 -57.7165 249.638 -54.3314 251.548L380.162 496.759L297.377 521.091L182.383 515.79L-206.896 238.832C-210.18 236.495 -214.798 237.289 -217.21 240.604C-219.622 243.92 -218.915 248.502 -215.631 250.838L154.997 514.527L-33.7023 505.827C-37.1252 505.669 -40.9895 509.122 -42.3336 513.539C-43.6776 517.956 -41.9925 521.664 -38.5696 521.822L179.374 531.87L203.15 548.786L126.033 571.453L8.64392 554.19L-250.718 493.259C-254.19 492.443 -258.435 495.146 -260.201 499.296C-261.967 503.446 -260.584 507.471 -257.113 508.287L-89.8689 547.577L-89.8874 547.624C-89.9009 547.658 -89.9143 547.692 -89.9275 547.727L-89.9544 547.798L-89.9782 547.862C-91.5566 552.144 -90.0317 556.028 -86.5721 556.537L6.57285 570.234L75.2701 586.373L71.6993 587.422L-170.487 559.982C-172.103 559.799 -173.562 560.96 -173.745 562.576C-173.928 564.192 -172.766 565.65 -171.15 565.833L45.0909 590.334L-71.0119 600.27C-74.2212 600.545 -77.6021 604.155 -78.7723 608.459L-79.3327 608.375C-82.7904 607.862 -86.8762 610.917 -88.4586 615.198C-90.041 619.48 -88.5207 623.367 -85.063 623.881L-73.7978 625.554H-158.012L-460.022 591.834C-463.598 591.434 -467.461 594.616 -468.65 598.939C-469.839 603.263 -467.903 607.092 -464.327 607.491L15.4052 661.055L-69.4764 668.319C-72.8271 668.606 -76.3649 672.528 -77.3784 677.08C-78.3918 681.632 -76.4972 685.09 -73.1465 684.803L97.3909 670.209L251.771 687.446L68.2535 753.167L-242.037 668.853C-245.51 667.91 -249.815 670.46 -251.654 674.55C-253.492 678.64 -252.167 682.72 -248.695 683.664L41.8666 762.617L35.9792 764.726L-36.6013 788.181C-38.2757 788.722 -39.8689 790.275 -41.053 792.312L-50.988 795.87C-54.1136 796.99 -56.8797 801.695 -57.1663 806.381C-57.4528 811.066 -55.1512 813.957 -52.0255 812.837L38.7362 780.334L69.9469 770.247L157.41 794.013L141.129 799.275L-257.902 857.169C-261.21 857.649 -264.587 861.766 -265.445 866.364C-266.303 870.963 -264.316 874.302 -261.008 873.822L50.1471 828.677L-35.0658 856.215C-38.2242 857.236 -41.0933 861.856 -41.4741 866.536C-41.8549 871.215 -39.6033 874.181 -36.4449 873.16L142.796 815.235L164.536 812.081C163.407 814.541 162.894 817.729 163.32 820.62C163.995 825.207 166.777 827.31 169.533 825.319L193.716 807.847L203.237 806.466L248.777 818.84L191.497 860.224L-256.366 925.203C-259.674 925.683 -263.051 929.8 -263.909 934.398C-264.767 938.997 -262.78 942.335 -259.472 941.855L166.074 880.115C164.944 882.576 164.429 885.766 164.855 888.659C165.53 893.246 168.312 895.349 171.069 893.357L195.26 875.88L255.006 867.212L-19.333 1068.11C-22.0796 1070.12 -23.7386 1075.47 -23.0386 1080.05C-22.3386 1084.63 -19.5446 1086.71 -16.798 1084.7L286.412 862.655L354.94 852.712L324.078 885.787L-17.7979 1136.15C-20.5444 1138.16 -22.2035 1143.5 -21.5034 1148.08C-20.8034 1152.66 -18.0094 1154.74 -15.2628 1152.73L269.739 944.023L165.724 1055.5C164.06 1057.28 164.156 1060.08 165.94 1061.74C167.723 1063.4 170.518 1063.31 172.182 1061.52L307.89 916.085L388.746 856.873L390.866 857.449L174.157 1080.35ZM126.396 599.547L68.2714 604.521L10.0053 621.646L36.3137 625.554H242.05L135.956 600.63L126.396 599.547ZM271.868 616.029L310.381 625.077L302.55 619.506L271.868 616.029ZM292.642 612.456L292.367 612.261L194.68 597.895L223.139 604.581L292.642 612.456ZM333.013 622.957L336.663 625.554H355.934L333.013 622.957ZM811.444 609.102L795.449 625.554H748.128L756.552 616.889L769.554 612.687L811.444 609.102ZM786.861 634.388H739.54L716.333 658.257L757.735 664.346L786.861 634.388ZM719.186 634.388H702.404L692.716 637.519L681.389 649.17L690.852 654.51L698.526 655.639L719.186 634.388ZM607.731 634.388H598.121L590.745 639.789L601.012 641.299L607.731 634.388ZM572.937 634.388H570.739L568.721 636.551L569.773 636.705L572.937 634.388ZM558.657 634.388H554.013L558.097 634.988L558.657 634.388ZM639.544 625.554H678.684L680.034 625.118L687.41 619.717L638.259 623.923L637.69 624.508L639.544 625.554ZM279.651 634.388H95.7799L180.303 646.943L292.299 637.359L279.651 634.388ZM-14.3317 634.388H-33.3451L-45.8857 638.074L97.2268 654.053L110.44 652.922L-14.3317 634.388ZM-78.8975 634.388H-52.824C-52.8797 635.556 -52.7444 636.559 -52.4443 637.341L-78.8975 634.388ZM362.229 857.85L370.378 851.882L368.319 851.323L362.229 857.85ZM386.399 831.946L400.369 829.919L460.302 786.03L479.386 766.4L442.576 771.741L386.399 831.946ZM460.061 753.002L485.084 749.372L472.081 740.12L460.061 753.002ZM464.819 734.954L446.087 755.029L430.24 757.329L462.777 733.501L464.819 734.954ZM544.683 649.364L527.845 667.409L518.792 674.039L485.47 666.211L514.858 644.978L544.683 649.364ZM482.299 729.169L495.806 714.694L526.341 718.103L501.974 743.167L482.299 729.169ZM581.207 610.221L578.759 612.845L556.725 614.73L561.218 611.484L575.352 606.917L581.207 610.221ZM599.873 603.165L605.447 597.191L638.173 586.615L608.74 608.169L599.873 603.165ZM627.488 573.569L633.205 567.442L669.442 554.465L681.327 555.013L678.499 557.084L627.488 573.569ZM615.06 573.94L610.191 579.159L602.537 581.632L611.34 575.273L615.06 573.94ZM708.633 486.606L852.369 382.761L864.213 370.578L799.018 389.74L708.633 486.606ZM782.37 394.633L671.557 513.393L639.094 536.846L573.032 533.801L754.197 402.914L782.37 394.633ZM819.705 367.569L886.115 348.049L1018.24 212.148L854.018 330.795L819.705 367.569ZM816.942 357.582L803.058 372.462L791.744 375.787L816.942 357.582ZM428.602 773.768L372.425 833.974L367.998 834.616L336.419 826.035L402.649 777.534L428.602 773.768ZM1019.95 394.634L993.539 421.804L972.625 429.293L1019.95 394.634ZM968.787 447.264L928.275 461.772L892.608 487.891L946.092 470.607L968.787 447.264ZM1018.43 326.589L889.716 458.985L853.777 471.856L937.103 386.149L1018.43 326.589ZM864.964 484.445L829.024 497.315L813.255 513.535L847.414 502.496L864.964 484.445ZM866.438 437.897L822.551 483.038L787.804 495.482L866.438 437.897ZM797.799 508.498L743.453 527.96L739.417 530.916L766.697 528.581L783.577 523.126L797.799 508.498ZM556.098 578.461L606.456 560.426L609.536 558.201L531.963 564.839L556.098 578.461ZM672.985 536.601L718.728 520.219L792.339 444.505L663.776 537.389L672.985 536.601ZM467.104 610.331L537.03 585.289L517.231 574.116L467.104 610.331ZM555.02 595.442L510.774 611.287L556.52 596.504L556.687 596.383L555.02 595.442ZM345.07 649.757L349.069 652.602L310.757 666.322L249.37 657.203L342.751 649.212L345.07 649.757ZM206.76 533.133L221.274 543.459L249.676 535.112L206.76 533.133ZM296.998 537.294L237.279 554.846L261.169 571.843L480.019 553.114L465.773 545.075L296.998 537.294ZM499.714 546.64L507.083 550.798L526.355 549.149L528.022 547.945L499.714 546.64ZM549.125 532.698L468.418 528.977L419.404 501.316L711.321 415.516L549.125 532.698ZM729.14 557.217L749.519 558.157L707.022 601.868L655.407 606.285L691.187 569.483L729.14 557.217ZM769 559.055L770.172 559.109L765.919 562.224L769 559.055ZM791.009 543.85L784.092 543.531L784.377 543.238L792.833 542.515L791.009 543.85ZM810.901 560.987L779.942 592.831L848.942 570.532L856.193 563.075L810.901 560.987ZM871.285 547.552L825.994 545.463L832.13 539.152L883.746 534.735L871.285 547.552ZM913.965 549.519L890.765 548.45L905.946 532.835L987.077 525.892L913.965 549.519ZM914.722 565.774L855.231 584.999L850.792 589.565L1053.85 572.188L914.722 565.774ZM434.477 527.412L344.699 523.273L398.91 507.34L434.477 527.412ZM609.421 837.833L751.287 938.766L561.444 887.18L609.421 837.833ZM610.674 815.609L607.861 818.502L604.96 816.438L610.674 815.609ZM597.389 829.273L583.687 819.524L555.582 823.602L507.912 872.634L545.344 882.806L597.389 829.273ZM579.889 798.601L586.045 802.98L629.013 796.746L685.754 738.383L679.201 737.41L632.84 744.136L579.889 798.601ZM554.009 780.188L567.857 790.041L609.144 747.574L581.871 751.531L554.009 780.188ZM557.385 800.812L543.538 790.959L522.951 812.134L550.224 808.177L557.385 800.812ZM558.174 754.969L541.978 771.628L525.272 759.743L558.174 754.969ZM531.506 782.399L510.678 767.581L468.715 798.311L444.163 823.565L499.255 815.572L531.506 782.399ZM467.58 711.542L462.624 715.171L459.44 712.906L464.667 711.217L467.58 711.542ZM450.003 724.413L441.829 718.597L389.595 735.477L341.537 770.198L398.834 761.885L450.003 724.413ZM434.45 684.696L415.921 681.944L393.204 665.781L401.655 663.05L449.012 674.176L434.45 684.696ZM383.552 677.135L379.061 673.94L376.158 676.037L383.552 677.135ZM433.003 616.593L295.685 596.4L281.456 586.277L500.966 567.492L433.003 616.593ZM263.402 591.653L258.595 588.233L246.934 589.231L263.402 591.653ZM238.308 573.799L219.155 560.173L162.523 576.818L177.424 579.01L238.308 573.799ZM466.278 661.702L431.274 653.478L475.49 639.189L493.726 641.871L466.278 661.702ZM468.204 678.685L455.546 687.83L476.397 690.927L494.884 684.952L468.204 678.685ZM524.448 691.898L515.752 694.708L513.407 696.425L543.126 700.84L546.73 697.132L524.448 691.898ZM559.813 683.676L554.066 682.326L564.359 679L559.813 683.676ZM563.299 701.025L560.911 703.481L570.982 704.978L573.203 703.352L563.299 701.025ZM590.293 690.836L576.382 687.568L594.037 669.409L621.231 660.621L629.828 661.885L590.293 690.836ZM592.27 707.831L591.92 708.088L595.843 708.671L592.27 707.831ZM614.904 696.618L609.36 695.316L633.005 678.001L614.904 696.618ZM650.544 704.991L631.474 700.511L664.124 666.928L684.62 669.942L650.544 704.991ZM704.159 717.587L667.113 708.884L698.615 676.482L729.171 693.726L706.271 717.28L704.159 717.587ZM787.204 737.096L746.794 727.603L780.526 722.709L812.741 740.89L787.204 737.096ZM785.197 753.155L833.508 764.505C836.047 765.101 839 763.816 841.095 761.459L852.078 763.09L853.9 764.118L652.709 793.308L703.539 741.025L785.197 753.155ZM-41.8447 613.944L-8.96085 611.13L-26.3608 616.244L-41.8447 613.944ZM860.733 395.092L915.549 355.489L958.963 342.729L928.689 373.868L764.399 494.178L860.733 395.092ZM953.096 328.363L980.865 320.201L1019.74 280.211L953.096 328.363ZM1009.36 311.825L1016.13 309.837L1080.68 262.56L1166.86 173.925L1088.14 230.798L1009.36 311.825ZM626.648 635.866L633.977 640.002L620.91 644.225L618.82 643.918L626.648 635.866ZM740.213 682.368L730.027 676.619L743.829 678.649L740.213 682.368ZM742.313 701.143L729.967 713.842L757.689 709.82L742.313 701.143ZM782.483 706.223L753.356 689.785L761.637 681.268L857.413 695.352L782.483 706.223ZM384.898 720.497L406.7 704.745L345.83 697.948L257.744 761.589L384.898 720.497ZM309.713 774.815L343.578 750.349L233.778 785.833L309.713 774.815ZM243.11 800.681L281.652 795.089L265.494 806.763L243.11 800.681ZM313.476 790.472L283.976 811.785L318.05 821.044L371.243 782.09L313.476 790.472ZM223.321 855.607L267.259 823.862L301.497 833.166L282.597 847.006L223.321 855.607ZM587.389 724.919L571.376 723.132L548.012 740.242L576.513 736.106L587.389 724.919ZM600.209 732.668L605.75 726.969L618.506 728.394L624.023 729.213L600.209 732.668ZM480.916 834.435L425.824 842.428L419.748 848.678L457.18 858.849L480.916 834.435ZM473.281 863.224L504.612 830.997L531.885 827.04L491.811 868.259L473.281 863.224ZM922.703 494.664L853.702 516.963L849.278 521.514L900.893 517.097L922.703 494.664ZM785 566.693L740.929 598.967L754.775 597.782L785 566.693ZM544.702 720.153L549.524 720.692L530.966 734.282L544.702 720.153ZM586.142 655.461L556.078 665.177L572.154 653.404L586.142 655.461ZM211.727 776.46L323.802 695.489L307.061 693.62L97.8842 761.219L185.347 784.985L211.727 776.46ZM314.004 842.45L319.866 838.157L328.125 840.401L314.004 842.45ZM179.213 663.207L179.506 663.182L181.077 663.415L179.213 663.207Z" fill="#1920FF"/>
</svg>
