<svg width="32" height="32" viewBox="0 0 32 32" fill="none" xmlns="http://www.w3.org/2000/svg">
<path fill-rule="evenodd" clip-rule="evenodd" d="M9.9535 1.42003C11.5175 1.34803 12.0162 1.33203 16.0002 1.33203C19.9842 1.33203 20.4828 1.34936 22.0455 1.42003C23.6082 1.4907 24.6748 1.74003 25.6082 2.10136C26.5855 2.4707 27.4722 3.04803 28.2055 3.7947C28.9522 4.5267 29.5282 5.41203 29.8962 6.3907C30.2588 7.32403 30.5068 8.3907 30.5788 9.9507C30.6508 11.5174 30.6668 12.016 30.6668 15.9987C30.6668 19.9827 30.6495 20.4814 30.5788 22.0454C30.5082 23.6054 30.2588 24.672 29.8962 25.6054C29.5282 26.5842 28.9512 27.471 28.2055 28.204C27.4722 28.9507 26.5855 29.5267 25.6082 29.8947C24.6748 30.2574 23.6082 30.5054 22.0482 30.5774C20.4828 30.6494 19.9842 30.6654 16.0002 30.6654C12.0162 30.6654 11.5175 30.648 9.9535 30.5774C8.3935 30.5067 7.32683 30.2574 6.3935 29.8947C5.41472 29.5267 4.52792 28.9497 3.79483 28.204C3.04867 27.4716 2.47125 26.5852 2.10283 25.6067C1.7415 24.6734 1.4935 23.6067 1.4215 22.0467C1.3495 20.48 1.3335 19.9814 1.3335 15.9987C1.3335 12.0147 1.35083 11.516 1.4215 9.95337C1.49216 8.3907 1.7415 7.32403 2.10283 6.3907C2.47179 5.41214 3.04965 4.52578 3.79616 3.79336C4.52822 3.04737 5.41413 2.46996 6.39216 2.10136C7.3255 1.74003 8.39216 1.49203 9.95216 1.42003H9.9535ZM21.9268 4.06003C20.3802 3.98936 19.9162 3.9747 16.0002 3.9747C12.0842 3.9747 11.6202 3.98936 10.0735 4.06003C8.64283 4.12536 7.86683 4.36403 7.3495 4.56536C6.6655 4.83203 6.17616 5.14803 5.66283 5.66137C5.17622 6.13477 4.80174 6.71107 4.56683 7.34803C4.3655 7.86537 4.12683 8.64136 4.0615 10.072C3.99083 11.6187 3.97616 12.0827 3.97616 15.9987C3.97616 19.9147 3.99083 20.3787 4.0615 21.9254C4.12683 23.356 4.3655 24.132 4.56683 24.6494C4.8015 25.2854 5.17616 25.8627 5.66283 26.336C6.13616 26.8227 6.7135 27.1974 7.3495 27.432C7.86683 27.6334 8.64283 27.872 10.0735 27.9374C11.6202 28.008 12.0828 28.0227 16.0002 28.0227C19.9175 28.0227 20.3802 28.008 21.9268 27.9374C23.3575 27.872 24.1335 27.6334 24.6508 27.432C25.3348 27.1654 25.8242 26.8494 26.3375 26.336C26.8242 25.8627 27.1988 25.2854 27.4335 24.6494C27.6348 24.132 27.8735 23.356 27.9388 21.9254C28.0095 20.3787 28.0242 19.9147 28.0242 15.9987C28.0242 12.0827 28.0095 11.6187 27.9388 10.072C27.8735 8.64136 27.6348 7.86537 27.4335 7.34803C27.1668 6.66403 26.8508 6.1747 26.3375 5.66137C25.8641 5.17479 25.2878 4.80031 24.6508 4.56536C24.1335 4.36403 23.3575 4.12536 21.9268 4.06003ZM14.1268 20.52C15.173 20.9555 16.338 21.0143 17.4227 20.6863C18.5075 20.3583 19.4447 19.6639 20.0743 18.7217C20.7039 17.7795 20.9869 16.6479 20.8749 15.5202C20.7629 14.3925 20.2628 13.3387 19.4602 12.5387C18.9485 12.0273 18.3298 11.6358 17.6486 11.3922C16.9674 11.1487 16.2407 11.0592 15.5208 11.1302C14.8009 11.2012 14.1057 11.4309 13.4852 11.8029C12.8648 12.1748 12.3345 12.6797 11.9326 13.2812C11.5306 13.8826 11.2671 14.5658 11.1609 15.2813C11.0546 15.9969 11.1084 16.7271 11.3182 17.4194C11.5281 18.1117 11.8888 18.7488 12.3745 19.285C12.8601 19.8211 13.4586 20.2429 14.1268 20.52ZM10.6695 10.668C11.3695 9.968 12.2006 9.4127 13.1152 9.03385C14.0299 8.65499 15.0102 8.46 16.0002 8.46C16.9902 8.46 17.9705 8.65499 18.8851 9.03385C19.7997 9.4127 20.6308 9.968 21.3308 10.668C22.0309 11.3681 22.5862 12.1991 22.965 13.1138C23.3439 14.0284 23.5389 15.0087 23.5389 15.9987C23.5389 16.9887 23.3439 17.969 22.965 18.8836C22.5862 19.7983 22.0309 20.6293 21.3308 21.3294C19.917 22.7431 17.9996 23.5374 16.0002 23.5374C14.0008 23.5374 12.0833 22.7431 10.6695 21.3294C9.25572 19.9156 8.46146 17.9981 8.46146 15.9987C8.46146 13.9993 9.25572 12.0818 10.6695 10.668ZM25.2108 9.5827C25.3843 9.41906 25.5232 9.22227 25.6192 9.004C25.7153 8.78572 25.7666 8.55039 25.7701 8.31194C25.7735 8.07349 25.7291 7.83676 25.6395 7.61578C25.5498 7.39479 25.4167 7.19405 25.2481 7.02542C25.0795 6.85679 24.8787 6.72371 24.6578 6.63406C24.4368 6.5444 24.2 6.5 23.9616 6.50348C23.7231 6.50695 23.4878 6.55824 23.2695 6.65429C23.0513 6.75035 22.8545 6.88923 22.6908 7.0627C22.3726 7.40007 22.1983 7.84819 22.2051 8.31194C22.2119 8.77568 22.3991 9.21854 22.727 9.54649C23.055 9.87444 23.4978 10.0617 23.9616 10.0684C24.4253 10.0752 24.8735 9.90095 25.2108 9.5827Z" fill="#F647FA"/>
</svg>
