<svg width="32" height="32" viewBox="0 0 32 32" fill="none" xmlns="http://www.w3.org/2000/svg">
<g clip-path="url(#clip0_291_7692)">
<path d="M28.7854 1H3.21458C2.62724 1 2.06395 1.23332 1.64864 1.64864C1.23332 2.06395 1 2.62724 1 3.21458V28.7854C1 29.3728 1.23332 29.9361 1.64864 30.3514C2.06395 30.7667 2.62724 31 3.21458 31H28.7854C29.3728 31 29.9361 30.7667 30.3514 30.3514C30.7667 29.9361 31 29.3728 31 28.7854V3.21458C31 2.62724 30.7667 2.06395 30.3514 1.64864C29.9361 1.23332 29.3728 1 28.7854 1ZM9.94167 26.5562H5.43125V12.2292H9.94167V26.5562ZM7.68333 10.2438C7.17171 10.2409 6.67239 10.0865 6.24842 9.80011C5.82444 9.51372 5.4948 9.10816 5.3011 8.63461C5.10739 8.16106 5.05831 7.64074 5.16004 7.13932C5.26177 6.6379 5.50975 6.17785 5.87269 5.81723C6.23564 5.45661 6.69727 5.21158 7.19933 5.11308C7.7014 5.01457 8.22139 5.06699 8.69369 5.26373C9.16599 5.46047 9.56942 5.79271 9.85308 6.21852C10.1367 6.64432 10.2879 7.14461 10.2875 7.65625C10.2923 7.99879 10.2281 8.3388 10.0988 8.65601C9.96939 8.97321 9.77748 9.26113 9.53446 9.50258C9.29145 9.74404 9.00231 9.9341 8.68428 10.0614C8.36625 10.1888 8.02584 10.2508 7.68333 10.2438ZM26.5667 26.5688H22.0583V18.7417C22.0583 16.4333 21.0771 15.7208 19.8104 15.7208C18.4729 15.7208 17.1604 16.7292 17.1604 18.8V26.5688H12.65V12.2396H16.9875V14.225H17.0458C17.4813 13.3438 19.0063 11.8375 21.3333 11.8375C23.85 11.8375 26.5688 13.3313 26.5688 17.7063L26.5667 26.5688Z" fill="#FE00B8"/>
</g>
<defs>
<clipPath id="clip0_291_7692">
<rect width="30" height="30" fill="white" transform="translate(1 1)"/>
</clipPath>
</defs>
</svg>
