<svg width="183" height="40" viewBox="0 0 183 40" fill="none" xmlns="http://www.w3.org/2000/svg">
<g clip-path="url(#clip0_229_810)">
<path d="M1.49434e-05 22.5291C1.49434e-05 32.1793 8.00595 40.0021 17.8821 40.0021C20.2309 40.0051 22.5571 39.5545 24.727 38.6762C26.897 37.7979 28.868 36.5093 30.5266 34.8844L5.23755 10.1738C3.57458 11.7946 2.25578 13.7204 1.35695 15.8408C0.458119 17.9611 -0.00302613 20.2341 1.49434e-05 22.5291V22.5291Z" fill="url(#paint0_linear_229_810)"/>
<path d="M25.3535 29.8283C27.0167 28.2074 28.3356 26.2812 29.2345 24.1606C30.1333 22.0399 30.5943 19.7666 30.5911 17.4713C30.5911 7.8228 22.5847 1.25003e-05 12.7073 1.25003e-05C10.3588 -0.00273656 8.03292 0.447968 5.86326 1.32623C3.6936 2.20449 1.72292 3.49301 0.0644531 5.11773L25.3535 29.8283Z" fill="url(#paint1_linear_229_810)"/>
<path d="M15.2637 29.374C20.5805 29.374 24.8907 25.1625 24.8907 19.9673C24.8907 14.7721 20.5805 10.5605 15.2637 10.5605C9.94687 10.5605 5.63672 14.7721 5.63672 19.9673C5.63672 25.1625 9.94687 29.374 15.2637 29.374Z" fill="url(#paint2_linear_229_810)"/>
<path d="M15.264 29.7558C12.9461 29.7562 10.6998 28.9712 8.90791 27.5346C7.11598 26.0981 5.88929 24.0988 5.43686 21.8775C4.98443 19.6562 5.33426 17.3504 6.42674 15.3529C7.51922 13.3554 9.28675 11.7899 11.4281 10.9231C13.5695 10.0562 15.9523 9.94179 18.1703 10.5992C20.3884 11.2566 22.3046 12.6452 23.5923 14.5284C24.88 16.4115 25.4596 18.6727 25.2323 20.9266C25.005 23.1806 23.9849 25.2878 22.3458 26.8891C21.418 27.8008 20.3144 28.5235 19.0988 29.0156C17.8832 29.5077 16.5798 29.7592 15.264 29.7558ZM15.264 10.9419C13.1259 10.9415 11.0539 11.6655 9.40097 12.9905C7.74802 14.3156 6.61644 16.1597 6.19905 18.2087C5.78166 20.2576 6.1043 22.3846 7.11198 24.2271C8.11966 26.0697 9.75003 27.5138 11.7253 28.3134C13.7005 29.113 15.8984 29.2186 17.9444 28.6122C19.9904 28.0059 21.7579 26.725 22.9457 24.988C24.1336 23.2509 24.6682 21.1652 24.4586 19.0861C24.249 17.007 23.308 15.0633 21.7961 13.5862C20.9404 12.7453 19.9224 12.0785 18.8011 11.6246C17.6799 11.1708 16.4776 10.9387 15.264 10.9419V10.9419Z" fill="white"/>
<path d="M9.61386 20.7738C9.90949 20.9738 10.2175 21.1558 10.5362 21.3185C11.2271 21.6561 11.9522 21.8932 12.7268 21.9603C13.5948 22.0358 14.4252 21.9088 15.2007 21.5029C15.25 21.4767 15.2975 21.4481 15.3514 21.4185C13.4868 19.9902 11.9932 18.2362 10.5941 16.394C11.8718 17.4489 13.1898 18.4468 14.5958 19.3299L14.6174 19.3097C14.3747 19.0405 14.1307 18.7725 13.8902 18.5016C13.6496 18.2308 13.4108 17.9472 13.1824 17.6616C12.954 17.3759 12.7307 17.0915 12.5083 16.8042C12.286 16.5168 12.0688 16.2198 11.8585 15.9181C11.8986 15.8936 11.915 15.927 11.9345 15.9455C12.575 16.5644 13.2416 17.1551 13.9342 17.7177C14.7524 18.39 15.6103 19.0147 16.5035 19.5886C16.5808 19.6379 16.6655 19.6759 16.7441 19.7236C16.7954 19.7548 16.7937 19.7118 16.8024 19.6881C16.8987 19.4388 16.9665 19.1799 17.0044 18.916C17.1647 17.7729 16.8749 16.7219 16.3243 15.7223C16.1977 15.4964 16.0569 15.2782 15.9029 15.0692C15.8926 15.0533 15.8833 15.0368 15.8752 15.0198H15.8731C15.896 15.0071 15.9102 15.0265 15.9253 15.0358C17.3106 15.8966 18.3129 17.0586 18.8345 18.5928C19.0457 19.204 19.1244 19.8515 19.0655 20.494C19.044 20.7239 19.002 20.9515 18.9399 21.1742C18.9314 21.1985 18.9297 21.2245 18.935 21.2496C18.9403 21.2747 18.9524 21.2979 18.9701 21.3168C19.3631 21.7909 19.6254 22.3554 19.7323 22.9565C19.7754 23.2122 19.7944 23.4696 19.7405 23.727C19.7326 23.7731 19.7168 23.8176 19.6938 23.8586C19.6558 23.9227 19.6252 23.9236 19.585 23.8616C19.5448 23.7995 19.503 23.7236 19.4555 23.6586C19.0888 23.1464 18.537 22.9489 17.8836 23.097C17.6159 23.1601 17.3596 23.2628 17.1236 23.4016C16.7727 23.5949 16.3907 23.7286 15.994 23.797C15.1075 23.9658 14.2361 23.8869 13.3789 23.6282C12.2605 23.2881 11.3027 22.6907 10.4831 21.8776C10.1479 21.5478 9.85153 21.1824 9.59961 20.7881L9.61386 20.7738Z" fill="white"/>
</g>
<path d="M44.0078 26.8872L50.6314 9.01367H55.7275L62.3281 26.8872H58.0769L56.6386 22.7642H49.7217L48.2821 26.8872H44.0078ZM55.6329 19.8761L53.243 13.0381H53.1078L50.7193 19.8761H55.6329Z" fill="white"/>
<path d="M69.256 15.9005C67.988 15.9131 67.0243 16.4693 67.0378 17.2833C67.0243 17.8887 67.5258 18.3576 68.8856 18.6167L71.4539 19.1097C74.2386 19.6532 75.5849 20.8135 75.5984 22.7397C75.5849 25.3801 73.0504 27.1459 69.2357 27.1636C65.3684 27.1509 63.0974 25.5343 62.7676 22.9167H66.7012C66.8864 23.9658 67.7975 24.5093 69.2357 24.5219C70.6618 24.5093 71.6121 23.9784 71.6121 23.1139C71.6121 22.4238 71.0052 21.9915 69.6588 21.7324L67.2824 21.2875C64.5492 20.7819 63.1501 19.4737 63.1636 17.4855C63.1501 14.9184 65.513 13.3145 69.21 13.3145C72.826 13.3145 75.0712 14.9184 75.2821 17.4615H71.6121C71.4337 16.5224 70.5645 15.9131 69.256 15.9005Z" fill="white"/>
<path d="M77.6393 31.8495V29.0094C78.1408 29.0473 78.7342 29.0599 79.2235 29.0599C80.0022 29.0599 80.6226 28.9854 81.0984 27.8251L81.335 27.2575L76.1875 13.4805H80.2793L83.2896 23.3557H83.4478L86.4838 13.4805H90.6283L85.032 28.3673C84.2129 30.5274 82.6421 31.9063 79.625 31.9215C78.8532 31.9101 78.1381 31.8988 77.6393 31.8495Z" fill="white"/>
<path d="M95.7601 26.8879H91.8535V13.4824H95.5749V15.8283H95.7344C96.3805 14.2851 97.9121 13.3105 100.037 13.3105C103.034 13.3105 104.987 15.2229 104.975 18.3461V26.8879H101.093V18.9882C101.081 17.3337 100.13 16.3466 98.5055 16.3466C96.8807 16.3466 95.7601 17.3704 95.7601 19.1361V26.8879Z" fill="white"/>
<path d="M106.756 20.2218C106.742 16.1241 109.435 13.3105 113.778 13.3105C117.475 13.3105 119.983 15.3215 120.141 18.3954H116.471C116.234 17.0746 115.31 16.1608 113.831 16.1494C111.957 16.1608 110.722 17.6307 110.722 20.1725C110.722 22.7649 111.939 24.2463 113.831 24.2463C115.204 24.2463 116.221 23.4437 116.471 22.0242H120.141C119.969 25.0577 117.581 27.147 113.778 27.1597C109.382 27.147 106.742 24.3082 106.756 20.2218Z" fill="white"/>
<path d="M129.051 11.8761C127.045 11.8761 125.923 12.7394 125.909 13.925C125.896 15.2205 127.322 15.8007 128.972 16.147L130.688 16.5413C133.962 17.2454 136.404 18.8 136.417 21.7754C136.404 25.0465 133.685 27.1446 129.025 27.132C124.405 27.1446 121.455 25.1451 121.342 21.3064H125.197C125.332 23.1076 126.86 24.0214 128.972 24.0214C131.058 24.0214 132.405 23.1076 132.405 21.7754C132.405 20.5531 131.216 19.9856 129.131 19.5002L127.045 19.0313C123.824 18.2907 121.843 16.784 121.843 14.1676C121.83 10.9218 124.893 8.76172 129.078 8.76172C133.314 8.76172 136.1 10.9585 136.153 14.1183H132.346C132.192 12.7027 130.995 11.8761 129.051 11.8761Z" fill="white"/>
<path d="M137.162 13.4805H141.128L143.372 22.5405H143.507L145.857 13.4805H149.737L152.114 22.4912H152.249L154.467 13.4805H158.428L154.482 26.8859H150.363L147.887 18.3682H147.702L145.215 26.8859H141.07L137.162 13.4805Z" fill="white"/>
<path d="M161.676 8C162.837 8.01264 163.801 8.83928 163.787 9.87698C163.801 10.8881 162.841 11.7287 161.676 11.7287C160.51 11.7287 159.537 10.8894 159.537 9.87698C159.536 8.83928 160.5 8.01264 161.676 8ZM159.722 13.4805H163.629V26.886H159.722V13.4805Z" fill="white"/>
<path d="M181.443 24.1199C180.651 24.0959 180.083 23.8368 180.092 22.7624V16.2202H182.784V13.4799H180.092V10.2708H176.184V13.4799H170.76V12.6659C170.76 11.5423 171.436 11.0986 172.688 11.086C172.899 11.0986 173.308 11.11 173.876 11.1593V8.39505C173.113 8.23828 172.334 8.16364 171.552 8.17259C168.675 8.17259 166.854 9.64131 166.854 12.47V13.4812H164.826V16.2214H166.854V26.8854H170.76V16.2202H176.184V23.2806C176.158 25.8856 178.084 27.0725 180.915 27.0573C181.613 27.0703 182.31 27.028 183 26.9309V24.0428C182.526 24.0832 181.839 24.1199 181.443 24.1199Z" fill="white"/>
<defs>
<linearGradient id="paint0_linear_229_810" x1="-6.55846" y1="11.0029" x2="22.3195" y2="40.557" gradientUnits="userSpaceOnUse">
<stop stop-color="#EF5138"/>
<stop offset="0.06" stop-color="#DF4D47"/>
<stop offset="0.31" stop-color="#993D88"/>
<stop offset="0.55" stop-color="#6231BB"/>
<stop offset="0.75" stop-color="#3A28E0"/>
<stop offset="0.9" stop-color="#2222F7"/>
<stop offset="1" stop-color="#1920FF"/>
</linearGradient>
<linearGradient id="paint1_linear_229_810" x1="6.08531" y1="-1.35442" x2="34.9632" y2="28.1996" gradientUnits="userSpaceOnUse">
<stop stop-color="#EF5138"/>
<stop offset="0.06" stop-color="#DF4D47"/>
<stop offset="0.31" stop-color="#993D88"/>
<stop offset="0.55" stop-color="#6231BB"/>
<stop offset="0.75" stop-color="#3A28E0"/>
<stop offset="0.9" stop-color="#2222F7"/>
<stop offset="1" stop-color="#1920FF"/>
</linearGradient>
<linearGradient id="paint2_linear_229_810" x1="22.2298" y1="26.7736" x2="8.77857" y2="13.0075" gradientUnits="userSpaceOnUse">
<stop stop-color="#EF5138"/>
<stop offset="0.1" stop-color="#E64F40"/>
<stop offset="0.25" stop-color="#CE4957"/>
<stop offset="0.45" stop-color="#A6407C"/>
<stop offset="0.69" stop-color="#6F34AF"/>
<stop offset="0.94" stop-color="#2924F0"/>
<stop offset="1" stop-color="#1920FF"/>
</linearGradient>
<clipPath id="clip0_229_810">
<rect width="30.5918" height="40" fill="white"/>
</clipPath>
</defs>
</svg>
