<svg width="32" height="32" viewBox="0 0 32 32" fill="none" xmlns="http://www.w3.org/2000/svg">
<g clip-path="url(#clip0_291_7666)">
<path d="M5.94543 5.61058C6.9401 6.41858 7.31343 6.35725 9.18277 6.23191L26.8028 5.17458C27.1761 5.17458 26.8654 4.80125 26.7414 4.73991L23.8134 2.62391C23.2534 2.18925 22.5054 1.69058 21.0734 1.81458L4.01343 3.05991C3.3921 3.12125 3.26677 3.43325 3.51477 3.68125L5.94543 5.61058ZM7.00277 9.71725V28.2559C7.00277 29.2519 7.5001 29.6252 8.62143 29.5626L27.9854 28.4426C29.1068 28.3812 29.2321 27.6959 29.2321 26.8866V8.47191C29.2321 7.66391 28.9214 7.22791 28.2348 7.28925L7.99877 8.47191C7.2521 8.53458 7.00277 8.90791 7.00277 9.71591V9.71725ZM26.1188 10.7106C26.2428 11.2706 26.1188 11.8306 25.5588 11.8946L24.6254 12.0812V25.7666C23.8148 26.2026 23.0681 26.4519 22.4454 26.4519C21.4481 26.4519 21.1988 26.1399 20.4521 25.2079L14.3494 15.6266V24.8959L16.2801 25.3332C16.2801 25.3332 16.2801 26.4532 14.7228 26.4532L10.4268 26.7012C10.3028 26.4532 10.4268 25.8306 10.8628 25.7066L11.9828 25.3959V13.1386L10.4294 13.0132C10.3041 12.4532 10.6161 11.6452 11.4868 11.5826L16.0948 11.2719L22.4468 20.9772V12.3906L20.8268 12.2052C20.7028 11.5199 21.2001 11.0226 21.8228 10.9612L26.1188 10.7106ZM2.58143 1.37991L20.3281 0.0732467C22.5068 -0.11342 23.0681 0.0105801 24.4374 1.00658L30.1028 4.98791C31.0361 5.67191 31.3481 5.85858 31.3481 6.60525V28.4426C31.3481 29.8106 30.8508 30.6212 29.1081 30.7439L8.49743 31.9892C7.19077 32.0519 6.56677 31.8652 5.88143 30.9932L1.70943 25.5799C0.962766 24.5839 0.6521 23.8386 0.6521 22.9666V3.55591C0.6521 2.43725 1.15077 1.50258 2.58143 1.37991Z" fill="#FE00B8"/>
</g>
<defs>
<clipPath id="clip0_291_7666">
<rect width="32" height="32" fill="white"/>
</clipPath>
</defs>
</svg>
