<svg width="32" height="32" viewBox="0 0 32 32" fill="none" xmlns="http://www.w3.org/2000/svg">
<g clip-path="url(#clip0_32_3011)">
<path d="M5.94519 5.61034C6.93986 6.41834 7.31319 6.357 9.18252 6.23167L26.8025 5.17434C27.1759 5.17434 26.8652 4.801 26.7412 4.73967L23.8132 2.62367C23.2532 2.189 22.5052 1.69034 21.0732 1.81434L4.01319 3.05967C3.39186 3.121 3.26652 3.433 3.51452 3.681L5.94519 5.61034ZM7.00252 9.717V28.2557C7.00252 29.2517 7.49986 29.625 8.62119 29.5623L27.9852 28.4423C29.1065 28.381 29.2319 27.6957 29.2319 26.8863V8.47167C29.2319 7.66367 28.9212 7.22767 28.2345 7.289L7.99852 8.47167C7.25186 8.53434 7.00252 8.90767 7.00252 9.71567V9.717ZM26.1185 10.7103C26.2425 11.2703 26.1185 11.8303 25.5585 11.8943L24.6252 12.081V25.7663C23.8145 26.2023 23.0679 26.4517 22.4452 26.4517C21.4479 26.4517 21.1985 26.1397 20.4519 25.2077L14.3492 15.6263V24.8957L16.2799 25.333C16.2799 25.333 16.2799 26.453 14.7225 26.453L10.4265 26.701C10.3025 26.453 10.4265 25.8303 10.8625 25.7063L11.9825 25.3957V13.1383L10.4292 13.013C10.3039 12.453 10.6159 11.645 11.4865 11.5823L16.0945 11.2717L22.4465 20.977V12.3903L20.8265 12.205C20.7025 11.5197 21.1999 11.0223 21.8225 10.961L26.1185 10.7103ZM2.58119 1.37967L20.3279 0.0730026C22.5065 -0.113664 23.0679 0.0103359 24.4372 1.00634L30.1025 4.98767C31.0359 5.67167 31.3479 5.85834 31.3479 6.605V28.4423C31.3479 29.8103 30.8505 30.621 29.1079 30.7437L8.49719 31.989C7.19052 32.0517 6.56652 31.865 5.88119 30.993L1.70919 25.5797C0.962522 24.5837 0.651855 23.8383 0.651855 22.9663V3.55567C0.651855 2.437 1.15052 1.50234 2.58119 1.37967Z" fill="#F647FA"/>
</g>
<defs>
<clipPath id="clip0_32_3011">
<rect width="32" height="32" fill="white"/>
</clipPath>
</defs>
</svg>
