<svg width="32" height="32" viewBox="0 0 32 32" fill="none" xmlns="http://www.w3.org/2000/svg">
<path d="M31.5242 6.58342C30.4108 7.07675 29.2148 7.41009 27.9575 7.56075C29.2548 6.78448 30.2254 5.56271 30.6882 4.12342C29.4693 4.84741 28.1353 5.35701 26.7442 5.63009C25.8087 4.63124 24.5696 3.96919 23.2193 3.74672C21.869 3.52425 20.483 3.75381 19.2765 4.39976C18.07 5.04571 17.1105 6.0719 16.5471 7.31903C15.9836 8.56615 15.8476 9.96442 16.1602 11.2968C13.6904 11.1727 11.2743 10.5308 9.06874 9.41263C6.86314 8.29443 4.9173 6.72497 3.35751 4.80609C2.82418 5.72609 2.51751 6.79275 2.51751 7.92875C2.51692 8.95141 2.76876 9.95841 3.25068 10.8604C3.73261 11.7624 4.42973 12.5315 5.28018 13.0994C4.29388 13.068 3.32934 12.8015 2.46685 12.3221V12.4021C2.46675 13.8364 2.96289 15.2266 3.87109 16.3367C4.77929 17.4469 6.04361 18.2087 7.44951 18.4928C6.53456 18.7404 5.5753 18.7768 4.64418 18.5994C5.04084 19.8336 5.81351 20.9128 6.854 21.686C7.8945 22.4592 9.15073 22.8877 10.4468 22.9114C8.24662 24.6386 5.52936 25.5755 2.73218 25.5714C2.23669 25.5716 1.74161 25.5426 1.24951 25.4848C4.08881 27.3103 7.39397 28.2792 10.7695 28.2754C22.1962 28.2754 28.4428 18.8114 28.4428 10.6034C28.4428 10.3368 28.4362 10.0674 28.4242 9.80075C29.6392 8.92205 30.6881 7.83395 31.5215 6.58742L31.5242 6.58342Z" fill="#F647FA"/>
</svg>
