<svg width="36" height="32" viewBox="0 0 36 32" fill="none" xmlns="http://www.w3.org/2000/svg">
<g clip-path="url(#clip0_291_7659)">
<path fill-rule="evenodd" clip-rule="evenodd" d="M34.0841 4.43298C34.6426 4.99513 35.0437 5.69412 35.2473 6.46C36 9.28682 36 15.1818 36 15.1818C36 15.1818 36 21.0768 35.2473 23.9036C35.0437 24.6695 34.6426 25.3685 34.0841 25.9306C33.5255 26.4928 32.8291 26.8984 32.0645 27.1068C29.25 27.8636 18 27.8636 18 27.8636C18 27.8636 6.75 27.8636 3.93545 27.1068C3.1709 26.8984 2.47449 26.4928 1.91593 25.9306C1.35737 25.3685 0.956258 24.6695 0.752727 23.9036C0 21.0768 0 15.1818 0 15.1818C0 15.1818 0 9.28682 0.752727 6.46C0.956258 5.69412 1.35737 4.99513 1.91593 4.43298C2.47449 3.87084 3.1709 3.46525 3.93545 3.25682C6.75 2.5 18 2.5 18 2.5C18 2.5 29.25 2.5 32.0645 3.25682C32.8291 3.46525 33.5255 3.87084 34.0841 4.43298ZM23.7273 15.2728L14.3182 10.5146V20.0309L23.7273 15.2728Z" fill="#FE00B8"/>
</g>
<defs>
<clipPath id="clip0_291_7659">
<rect width="36" height="32" fill="white"/>
</clipPath>
</defs>
</svg>
