<svg width="24" height="24" viewBox="0 0 24 24" fill="none" xmlns="http://www.w3.org/2000/svg">
<path fill-rule="evenodd" clip-rule="evenodd" d="M21.8511 5.43127C22.1925 5.7748 22.4376 6.20196 22.562 6.67C23.022 8.3975 23.022 12 23.022 12C23.022 12 23.022 15.6025 22.562 17.33C22.4376 17.798 22.1925 18.2252 21.8511 18.5687C21.5098 18.9123 21.0842 19.1601 20.617 19.2875C18.897 19.75 12.022 19.75 12.022 19.75C12.022 19.75 5.14697 19.75 3.42697 19.2875C2.95974 19.1601 2.53416 18.9123 2.19282 18.5687C1.85148 18.2252 1.60635 17.798 1.48197 17.33C1.02197 15.6025 1.02197 12 1.02197 12C1.02197 12 1.02197 8.3975 1.48197 6.67C1.60635 6.20196 1.85148 5.7748 2.19282 5.43127C2.53416 5.08773 2.95974 4.83988 3.42697 4.7125C5.14697 4.25 12.022 4.25 12.022 4.25C12.022 4.25 18.897 4.25 20.617 4.7125C21.0842 4.83988 21.5098 5.08773 21.8511 5.43127ZM15.522 12L9.77197 8.72879V15.2713L15.522 12Z" fill="#FF46C0"/>
</svg>
